<svg width="11" height="12" viewBox="0 0 11 12" fill="none" xmlns="http://www.w3.org/2000/svg">
<path d="M8.303 0.811511C8.4477 0.656693 8.6208 0.533204 8.81218 0.448251C9.00356 0.363298 9.20941 0.318582 9.41769 0.316712C9.62598 0.314841 9.83254 0.355854 10.0253 0.437358C10.2181 0.518861 10.3933 0.639223 10.5405 0.79142C10.6878 0.943616 10.8043 1.1246 10.8832 1.32381C10.9621 1.52302 11.0018 1.73647 10.9999 1.9517C10.9981 2.16693 10.9549 2.37963 10.8726 2.5774C10.7904 2.77516 10.6709 2.95403 10.5211 3.10355L9.89912 3.74627L7.68102 1.45422L8.303 0.811511ZM6.57196 2.60025L0 9.39127V11.6833H2.21811L8.79085 4.89229L6.57196 2.60025Z" fill="#609CFA"/>
</svg>
