<svg width="9" height="13" viewBox="0 0 9 13" fill="none" xmlns="http://www.w3.org/2000/svg">
<path d="M7.1514 8.39666L5.43166 10.1164L5.00488 10.5432V9.93963V1.25001C5.00488 1.1174 4.9522 0.99022 4.85843 0.896449C4.76466 0.802679 4.63748 0.75 4.50487 0.75C4.37226 0.75 4.24508 0.802679 4.15131 0.896449C4.05754 0.99022 4.00486 1.1174 4.00486 1.25001V9.93963V10.5432L3.57809 10.1164L1.85831 8.39663L1.85524 8.39356L1.85527 8.39353C1.80914 8.34577 1.75397 8.30768 1.69297 8.28148C1.63196 8.25527 1.56635 8.24148 1.49996 8.2409C1.43357 8.24033 1.36773 8.25298 1.30628 8.27812C1.24483 8.30326 1.189 8.34039 1.14205 8.38733C1.09511 8.43428 1.05798 8.49011 1.03284 8.55156C1.0077 8.61301 0.995047 8.67885 0.995624 8.74524C0.996201 8.81163 1.00999 8.87724 1.0362 8.93824C1.0624 8.99925 1.1005 9.05442 1.14825 9.10054L1.15138 9.10356L1.15135 9.10359L4.15136 12.1036C4.15137 12.1036 4.15138 12.1036 4.15139 12.1036C4.24515 12.1974 4.3723 12.25 4.50487 12.25C4.63744 12.25 4.76459 12.1974 4.85835 12.1036L4.85838 12.1036M7.1514 8.39666L5.03513 12.2804L4.85838 12.1036M7.1514 8.39666C7.15141 8.39665 7.15142 8.39664 7.15143 8.39663C7.24519 8.30291 7.37234 8.25026 7.50491 8.25026C7.63747 8.25026 7.76461 8.3029 7.85837 8.3966M7.1514 8.39666L7.85839 9.10359C7.95211 9.00983 8.00476 8.88268 8.00476 8.75011C8.00476 8.61755 7.95212 8.49042 7.85842 8.39666M4.85838 12.1036L7.85837 9.10362L4.85838 12.1036ZM7.85842 8.39666L8.03517 8.21985L7.85837 8.3966M7.85842 8.39666C7.8584 8.39664 7.85838 8.39662 7.85837 8.3966M7.85842 8.39666L7.85837 8.3966" fill="#6B7280" stroke="#6B7280" stroke-width="0.5"/>
</svg>
